ffmpeg started on 2016-12-01 at 07:21:07
Report written to "Output/x264/results/ffmpeg/old_town_cross_2160p50medium9000k.log"
Command line:
Tools/ffmpeg/ffmpeg -benchmark -y -i Input/y4m/old_town_cross_2160p50.y4m -c:v libx264 -preset medium -b:v 9000k -an Output/x264/encoded/old_town_cross_2160p50medium9000k.mkv
ffmpeg version N-82227-gdb23fde Copyright (c) 2000-2016 the FFmpeg developers
  built with gcc 5.4.0 (Ubuntu 5.4.0-6ubuntu1~16.04.2) 20160609
  configuration: --prefix=/home/jaroslav/ffmpeg_build --pkg-config-flags=--static --extra-cflags=-I/home/jaroslav/ffmpeg_build/include --extra-ldflags=-L/home/jaroslav/ffmpeg_build/lib --bindir=/home/jaroslav/bin --enable-gpl --enable-libass --enable-libfdk-aac --enable-libfreetype --enable-libmp3lame --enable-libopus --enable-libtheora --enable-libvorbis --enable-libvpx --enable-libx264 --enable-libx265 --enable-nvenc --enable-libmfx --enable-libxvid --enable-libgsm --enable-libopencore-amrnb --enable-version3 --enable-nonfree
  libavutil      55. 35.100 / 55. 35.100
  libavcodec     57. 66.101 / 57. 66.101
  libavformat    57. 57.100 / 57. 57.100
  libavdevice    57.  2.100 / 57.  2.100
  libavfilter     6. 66.100 /  6. 66.100
  libswscale      4.  3.100 /  4.  3.100
  libswresample   2.  4.100 /  2.  4.100
  libpostproc    54.  2.100 / 54.  2.100
Input #0, yuv4mpegpipe, from 'Input/y4m/old_town_cross_2160p50.y4m':
  Duration: 00:00:10.00, start: 0.000000, bitrate: 4976642 kb/s
    Stream #0:0: Video: rawvideo (I420 / 0x30323449), yuv420p(progressive), 3840x2160, SAR 1:1 DAR 16:9, 50 fps, 50 tbr, 50 tbn, 50 tbc
[libx264 @ 0x455a120] using SAR=1/1
[libx264 @ 0x455a120] using cpu capabilities: MMX2 SSE2Fast SSSE3 SSE4.2 AVX FMA3 AVX2 LZCNT BMI2
[libx264 @ 0x455a120] profile High, level 5.2
[libx264 @ 0x455a120] 264 - core 148 - H.264/MPEG-4 AVC codec - Copyleft 2003-2016 - http://www.videolan.org/x264.html - options: cabac=1 ref=3 deblock=1:0:0 analyse=0x3:0x113 me=hex subme=7 psy=1 psy_rd=1.00:0.00 mixed_ref=1 me_range=16 chroma_me=1 trellis=1 8x8dct=1 cqm=0 deadzone=21,11 fast_pskip=1 chroma_qp_offset=-2 threads=6 lookahead_threads=1 sliced_threads=0 nr=0 decimate=1 interlaced=0 bluray_compat=0 constrained_intra=0 bframes=3 b_pyramid=2 b_adapt=1 b_bias=0 direct=1 weightb=1 open_gop=0 weightp=2 keyint=250 keyint_min=25 scenecut=40 intra_refresh=0 rc_lookahead=40 rc=abr mbtree=1 bitrate=9000 ratetol=1.0 qcomp=0.60 qpmin=0 qpmax=69 qpstep=4 ip_ratio=1.40 aq=1:1.00
Output #0, matroska, to 'Output/x264/encoded/old_town_cross_2160p50medium9000k.mkv':
  Metadata:
    encoder         : Lavf57.57.100
    Stream #0:0: Video: h264 (libx264) (H264 / 0x34363248), yuv420p, 3840x2160 [SAR 1:1 DAR 16:9], q=-1--1, 9000 kb/s, 50 fps, 1k tbn, 50 tbc
    Metadata:
      encoder         : Lavc57.66.101 libx264
    Side data:
      cpb: bitrate max/min/avg: 0/0/9000000 buffer size: 0 vbv_delay: -1
Stream mapping:
  Stream #0:0 -> #0:0 (rawvideo (native) -> h264 (libx264))
Press [q] to stop, [?] for help
frame=   47 fps= 18 q=0.0 size=       0kB time=00:00:00.00 bitrate=N/A speed=   0x    frame=   54 fps= 18 q=35.0 size=       1kB time=00:00:00.02 bitrate= 279.6kbits/s speed=0.00684x    frame=   62 fps= 17 q=43.0 size=       1kB time=00:00:00.18 bitrate=  32.4kbits/s speed=0.0505x    frame=   70 fps= 16 q=38.0 size=       1kB time=00:00:00.34 bitrate=  17.2kbits/s speed=0.0803x    frame=   78 fps= 16 q=37.0 size=       1kB time=00:00:00.50 bitrate=  11.7kbits/s speed=0.102x    frame=   86 fps= 16 q=36.0 size=       1kB time=00:00:00.66 bitrate=   8.9kbits/s speed=0.121x    frame=   94 fps= 15 q=35.0 size=       1kB time=00:00:00.82 bitrate=   7.2kbits/s speed=0.133x    frame=  102 fps= 15 q=35.0 size=       1kB time=00:00:00.98 bitrate=   6.0kbits/s speed=0.145x    frame=  107 fps= 15 q=35.0 size=       1kB time=00:00:01.08 bitrate=   5.4kbits/s speed=0.148x    frame=  114 fps= 14 q=35.0 size=       1kB time=00:00:01.22 bitrate=   4.8kbits/s speed=0.155x    frame=  119 fps= 14 q=35.0 size=       1kB time=00:00:01.32 bitrate=   4.4kbits/s speed=0.157x    frame=  126 fps= 14 q=35.0 size=       1kB time=00:00:01.46 bitrate=   4.0kbits/s speed=0.164x    frame=  132 fps= 14 q=34.0 size=       1kB time=00:00:01.58 bitrate=   3.7kbits/s speed=0.167x    frame=  139 fps= 14 q=34.0 size=       1kB time=00:00:01.72 bitrate=   3.4kbits/s speed=0.171x    frame=  146 fps= 14 q=34.0 size=       1kB time=00:00:01.86 bitrate=   3.2kbits/s speed=0.175x    frame=  150 fps= 13 q=34.0 size=       1kB time=00:00:01.94 bitrate=   3.0kbits/s speed=0.174x    frame=  156 fps= 13 q=34.0 size=       1kB time=00:00:02.06 bitrate=   2.8kbits/s speed=0.176x    frame=  161 fps= 13 q=34.0 size=       1kB time=00:00:02.16 bitrate=   2.7kbits/s speed=0.177x    frame=  169 fps= 13 q=34.0 size=       1kB time=00:00:02.32 bitrate=   2.5kbits/s speed=0.182x    frame=  175 fps= 13 q=34.0 size=       1kB time=00:00:02.44 bitrate=   2.4kbits/s speed=0.184x    frame=  181 fps= 13 q=34.0 size=       1kB time=00:00:02.56 bitrate=   2.3kbits/s speed=0.185x    frame=  187 fps= 13 q=34.0 size=       1kB time=00:00:02.68 bitrate=   2.2kbits/s speed=0.186x    frame=  193 fps= 13 q=34.0 size=       1kB time=00:00:02.80 bitrate=   2.1kbits/s speed=0.187x    frame=  199 fps= 13 q=34.0 size=       1kB time=00:00:02.92 bitrate=   2.0kbits/s speed=0.188x    frame=  206 fps= 13 q=34.0 size=       1kB time=00:00:03.06 bitrate=   1.9kbits/s speed=0.19x    frame=  214 fps= 13 q=34.0 size=       1kB time=00:00:03.22 bitrate=   1.8kbits/s speed=0.192x    frame=  221 fps= 13 q=34.0 size=       1kB time=00:00:03.36 bitrate=   1.7kbits/s speed=0.193x    frame=  227 fps= 13 q=34.0 size=       1kB time=00:00:03.48 bitrate=   1.7kbits/s speed=0.194x    frame=  234 fps= 13 q=34.0 size=       1kB time=00:00:03.62 bitrate=   1.6kbits/s speed=0.194x    frame=  241 fps= 13 q=34.0 size=       1kB time=00:00:03.76 bitrate=   1.6kbits/s speed=0.195x    frame=  248 fps= 12 q=34.0 size=       1kB time=00:00:03.90 bitrate=   1.5kbits/s speed=0.196x    frame=  254 fps= 12 q=34.0 size=       1kB time=00:00:04.02 bitrate=   1.5kbits/s speed=0.196x    frame=  262 fps= 12 q=34.0 size=       1kB time=00:00:04.18 bitrate=   1.4kbits/s speed=0.191x    frame=  263 fps= 12 q=34.0 size=       1kB time=00:00:04.20 bitrate=   1.4kbits/s speed=0.186x    frame=  265 fps= 11 q=34.0 size=       1kB time=00:00:04.24 bitrate=   1.4kbits/s speed=0.182x    frame=  270 fps= 11 q=34.0 size=       1kB time=00:00:04.34 bitrate=   1.4kbits/s speed=0.182x    frame=  275 fps= 11 q=34.0 size=       1kB time=00:00:04.44 bitrate=   1.3kbits/s speed=0.181x    frame=  280 fps= 11 q=34.0 size=       1kB time=00:00:04.54 bitrate=   1.3kbits/s speed=0.181x    frame=  285 fps= 11 q=34.0 size=       1kB time=00:00:04.64 bitrate=   1.3kbits/s speed=0.18x    frame=  290 fps= 11 q=34.0 size=       1kB time=00:00:04.74 bitrate=   1.2kbits/s speed=0.18x    frame=  295 fps= 11 q=31.0 size=    5130kB time=00:00:04.84 bitrate=8681.3kbits/s speed=0.179x    frame=  301 fps= 11 q=35.0 size=    5352kB time=00:00:04.96 bitrate=8838.0kbits/s speed=0.18x    frame=  307 fps= 11 q=35.0 size=    5352kB time=00:00:05.08 bitrate=8629.2kbits/s speed=0.181x    frame=  315 fps= 11 q=35.0 size=    5352kB time=00:00:05.24 bitrate=8365.8kbits/s speed=0.182x    frame=  321 fps= 11 q=35.0 size=    5352kB time=00:00:05.36 bitrate=8178.5kbits/s speed=0.183x    frame=  327 fps= 11 q=35.0 size=    5352kB time=00:00:05.48 bitrate=7999.5kbits/s speed=0.183x    frame=  335 fps= 11 q=35.0 size=    5352kB time=00:00:05.64 bitrate=7772.6kbits/s speed=0.184x    frame=  342 fps= 11 q=35.0 size=    5352kB time=00:00:05.78 bitrate=7584.4kbits/s speed=0.185x    frame=  347 fps= 11 q=35.0 size=    5352kB time=00:00:05.88 bitrate=7455.4kbits/s speed=0.185x    frame=  355 fps= 11 q=35.0 size=    5352kB time=00:00:06.04 bitrate=7257.9kbits/s speed=0.186x    frame=  362 fps= 11 q=35.0 size=    5352kB time=00:00:06.18 bitrate=7093.5kbits/s speed=0.187x    frame=  370 fps= 11 q=35.0 size=    5352kB time=00:00:06.34 bitrate=6914.5kbits/s speed=0.188x    frame=  377 fps= 11 q=35.0 size=    5352kB time=00:00:06.48 bitrate=6765.2kbits/s speed=0.189x    frame=  383 fps= 11 q=35.0 size=    5352kB time=00:00:06.60 bitrate=6642.2kbits/s speed=0.189x    frame=  391 fps= 11 q=35.0 size=    5352kB time=00:00:06.76 bitrate=6485.0kbits/s speed=0.189x    frame=  398 fps= 11 q=35.0 size=    5352kB time=00:00:06.90 bitrate=6353.4kbits/s speed=0.19x    frame=  406 fps= 11 q=35.0 size=    5352kB time=00:00:07.06 bitrate=6209.5kbits/s speed=0.191x    frame=  411 fps= 11 q=35.0 size=    5352kB time=00:00:07.16 bitrate=6122.8kbits/s speed=0.191x    frame=  418 fps= 11 q=35.0 size=    5352kB time=00:00:07.30 bitrate=6005.4kbits/s speed=0.192x    frame=  426 fps= 11 q=35.0 size=    5352kB time=00:00:07.46 bitrate=5876.6kbits/s speed=0.193x    frame=  431 fps= 11 q=35.0 size=    5352kB time=00:00:07.56 bitrate=5798.9kbits/s speed=0.192x    frame=  438 fps= 11 q=35.0 size=    5352kB time=00:00:07.70 bitrate=5693.4kbits/s speed=0.193x    frame=  445 fps= 11 q=34.0 size=    5352kB time=00:00:07.84 bitrate=5591.8kbits/s speed=0.194x    frame=  451 fps= 11 q=34.0 size=    5352kB time=00:00:07.96 bitrate=5507.5kbits/s speed=0.194x    frame=  459 fps= 11 q=34.0 size=    5352kB time=00:00:08.12 bitrate=5399.0kbits/s speed=0.195x    frame=  464 fps= 11 q=34.0 size=    5352kB time=00:00:08.22 bitrate=5333.3kbits/s speed=0.195x    frame=  470 fps= 11 q=34.0 size=    5352kB time=00:00:08.34 bitrate=5256.6kbits/s speed=0.195x    frame=  476 fps= 11 q=34.0 size=    5352kB time=00:00:08.46 bitrate=5182.0kbits/s speed=0.195x    frame=  482 fps= 11 q=34.0 size=    5352kB time=00:00:08.58 bitrate=5109.6kbits/s speed=0.196x    frame=  490 fps= 11 q=34.0 size=    5352kB time=00:00:08.74 bitrate=5016.0kbits/s speed=0.196x    frame=  497 fps= 11 q=34.0 size=    5352kB time=00:00:08.88 bitrate=4937.0kbits/s speed=0.196x    frame=  500 fps=9.9 q=-1.0 Lsize=   11100kB time=00:00:09.94 bitrate=9147.0kbits/s speed=0.198x    
video:11095kB audio:0kB subtitle:0kB other streams:0kB global headers:0kB muxing overhead: 0.041094%
bench: utime=176.100s
bench: maxrss=1924768kB
[libx264 @ 0x455a120] frame I:3     Avg QP:30.36  size:331523
[libx264 @ 0x455a120] frame P:183   Avg QP:32.57  size: 32045
[libx264 @ 0x455a120] frame B:314   Avg QP:34.23  size: 14338
[libx264 @ 0x455a120] consecutive B-frames: 16.0%  0.8%  0.0% 83.2%
[libx264 @ 0x455a120] mb I  I16..4:  8.0% 77.5% 14.5%
[libx264 @ 0x455a120] mb P  I16..4:  0.0%  0.2%  0.0%  P16..4: 32.7%  1.8%  1.8%  0.0%  0.0%    skip:63.5%
[libx264 @ 0x455a120] mb B  I16..4:  0.0%  0.0%  0.0%  B16..8: 39.6%  0.1%  0.0%  direct: 0.0%  skip:60.3%  L0:47.5% L1:52.5% BI: 0.0%
[libx264 @ 0x455a120] final ratefactor: 26.67
[libx264 @ 0x455a120] 8x8 transform intra:77.5% inter:92.6%
[libx264 @ 0x455a120] coded y,uvDC,uvAC intra: 67.0% 70.7% 47.3% inter: 5.2% 5.1% 0.0%
[libx264 @ 0x455a120] i16 v,h,dc,p: 28% 35% 17% 20%
[libx264 @ 0x455a120] i8 v,h,dc,ddl,ddr,vr,hd,vl,hu: 19% 21% 26%  5%  5%  5%  8%  4%  7%
[libx264 @ 0x455a120] i4 v,h,dc,ddl,ddr,vr,hd,vl,hu: 22% 27% 12%  7%  7%  6%  9%  5%  6%
[libx264 @ 0x455a120] i8c dc,h,v,p: 64% 18% 15%  3%
[libx264 @ 0x455a120] Weighted P-Frames: Y:0.5% UV:0.0%
[libx264 @ 0x455a120] ref P L0: 55.6% 31.4% 10.3%  2.7%  0.0%
[libx264 @ 0x455a120] ref B L0: 88.0% 10.4%  1.6%
[libx264 @ 0x455a120] ref B L1: 95.4%  4.6%
[libx264 @ 0x455a120] kb/s:9088.76
